<?xml version="1.0" encoding="UTF-8" standalone="no"?>
<!-- Created with sK1/UniConvertor (http://sk1project.org/) -->

<svg
   xmlns:dc="http://purl.org/dc/elements/1.1/"
   xmlns:cc="http://creativecommons.org/ns#"
   xmlns:rdf="http://www.w3.org/1999/02/22-rdf-syntax-ns#"
   xmlns:svg="http://www.w3.org/2000/svg"
   xmlns="http://www.w3.org/2000/svg"
   xmlns:sodipodi="http://sodipodi.sourceforge.net/DTD/sodipodi-0.dtd"
   xmlns:inkscape="http://www.inkscape.org/namespaces/inkscape"
   width="200"
   height="70"
   viewBox="0 0 160.00001 55.999996"
   id="svg2"
   version="1.1"
   inkscape:version="0.48.4 r9939"
   sodipodi:docname="Logo (copy).svg"
   style="fill-rule:evenodd">
  <metadata
     id="metadata38">
    <rdf:RDF>
      <cc:Work
         rdf:about="">
        <dc:format>image/svg+xml</dc:format>
        <dc:type
           rdf:resource="http://purl.org/dc/dcmitype/StillImage" />
        <dc:title />
      </cc:Work>
    </rdf:RDF>
  </metadata>
  <sodipodi:namedview
     pagecolor="#ffffff"
     bordercolor="#666666"
     borderopacity="1"
     objecttolerance="10"
     gridtolerance="10"
     guidetolerance="10"
     inkscape:pageopacity="0"
     inkscape:pageshadow="2"
     inkscape:window-width="1920"
     inkscape:window-height="1056"
     id="namedview36"
     showgrid="false"
     inkscape:zoom="3.588117"
     inkscape:cx="121.07449"
     inkscape:cy="-0.78769272"
     inkscape:window-x="0"
     inkscape:window-y="24"
     inkscape:window-maximized="1"
     inkscape:current-layer="svg2" />
  <defs
     id="defs4">
    <marker
       id="ArrowEnd"
       viewBox="0 0 10 10"
       refX="0"
       refY="5"
       markerUnits="strokeWidth"
       markerWidth="4"
       markerHeight="3"
       orient="auto">
      <path
         d="M 0,0 10,5 0,10 z"
         id="path7"
         inkscape:connector-curvature="0" />
    </marker>
    <marker
       id="ArrowStart"
       viewBox="0 0 10 10"
       refX="10"
       refY="5"
       markerUnits="strokeWidth"
       markerWidth="4"
       markerHeight="3"
       orient="auto">
      <path
         d="M 10,0 0,5 10,10 z"
         id="path10"
         inkscape:connector-curvature="0" />
    </marker>
  </defs>
  <g
     id="g12"
     transform="matrix(0.62250437,0,0,0.63899931,-8.0264144,-464.63362)">
    <g
       id="g14">
      <g
         id="g16">
        <g
           id="g20">
          <path
             style="fill:#ffffff;stroke:none"
             d="m 246.368,775.441 c -4.79,2.857 -9.845,3.324 -15.301,2.731 -5.188,-0.749 -10.008,-2.363 -14.601,-4.886 l -0.932,-0.55 -0.569,-0.364 -4.834,10.2 0.018,-0.004 c 2.771,-0.571 5.583,-0.842 8.411,-0.816 3.335,0.093 6.545,0.599 9.75,1.523 l 2.583,0.796 0,15.671 0,2.095 0,0.16 6.849,0 0,-8.854 1.818,-1.044 c 2.383,-1.243 4.897,-1.813 7.578,-1.853 l 4.957,0 0,0.92 c 2.225,-0.596 4.45,-0.902 6.754,-0.92 2.476,0.02 4.849,0.377 7.228,1.056 l 2.373,0.734 0,19.126 -2.377,0.726 c -2.377,0.681 -4.751,1.032 -7.224,1.057 -2.473,-0.025 -4.848,-0.377 -7.226,-1.057 l -2.374,-0.728 -1.879,-10e-4 0,1.54 c -5.879,0 -11.758,0 -17.637,0 l 0,-1.598 -1.424,0.437 c -3.438,0.99 -6.876,1.492 -10.454,1.53 -3.578,-0.038 -7.017,-0.54 -10.455,-1.53 l -2.582,-0.794 -0.069,1.955 c -8.691,0 -17.383,0 -26.074,0 l 0,-1.954 -0.069,10e-4 -2.584,0.792 c -3.438,0.99 -6.876,1.492 -10.453,1.53 -3.578,-0.038 -7.017,-0.54 -10.455,-1.53 l -0.901,-0.277 0,1.438 -28.837,0 0,-1.822 -1.489,0.537 c -2.997,1.005 -6.046,1.54 -9.205,1.646 -3.648,0.043 -7.278,-0.5 -10.75,-1.633 l -2.512,-0.871 0,2.143 -11.7142,0 0,-1.972 -2.6506,0.811 c -3.439,0.99 -6.8775,1.492 -10.4558,1.53 -3.5774,-0.038 -7.0149,-0.54 -10.4529,-1.53 l -2.5841,-0.792 0,-10e-4 -2.6505,0.793 c -3.6299,1.045 -7.3863,1.562 -11.1625,1.522 -3.3324,-0.093 -6.5433,-0.6 -9.7463,-1.522 l -2.584,-0.792 -1.4952,0 0,1.953 -12.7275,0 0,-27.339 -8.1465,0 0,-12.129 28.8827,0 0,9.103 0.2073,-0.038 c 2.5563,-0.424 5.1409,-0.596 7.7299,-0.524 3.0914,0.147 6.0707,0.645 9.0441,1.504 l 2.6525,0.794 2.5786,-0.795 c 3.437,-0.991 6.877,-1.497 10.4544,-1.529 3.5773,0.032 7.0208,0.537 10.4578,1.53 l 2.6486,0.792 0,-12.586 11.7142,0 0,12.675 2.597,-0.851 c 3.373,-1.121 6.821,-1.589 10.371,-1.554 3.165,0.094 6.217,0.588 9.238,1.54 l 2.464,0.842 0,10.938 -2.345,0 0.238,0.26 c 0.756,0.988 1.282,1.922 1.734,3.082 0.407,1.396 0.557,2.676 0.557,4.127 l 10.597,-17.202 -0.116,0.002 -0.457,0.008 -0.46,0.006 -0.46,0.003 -0.458,0.002 -8.117,0 0,-12.129 27.18,0 0,8.516 -1.426,2.317 2.555,-0.788 c 2.743,-0.793 5.488,-1.275 8.336,-1.47 3.089,-0.147 6.093,0.053 9.133,0.619 l 0.406,0.084 -6.388,-14.112 0.025,-17.448 14.485,-13.263 20.312,-0.089 5.031,3.131 c -0.524,-1.846 -0.825,-3.446 -0.678,-5.367 0.169,-1.545 0.508,-3.043 1.129,-4.483 l 0.843,-1.7 2.488,-0.216 c 2.007,0.143 3.309,0.666 4.834,1.975 1.255,1.396 1.987,2.794 2.518,4.587 0.874,-0.707 1.805,-1.345 2.735,-1.977 l 3.082,-2.069 1.456,2.8 c 1.247,2.551 0.846,4.807 -0.182,7.373 -1.06,2.162 -2.427,3.819 -4.258,5.372 2.208,1.258 4.395,2.494 6.723,3.513 2.295,0.988 4.626,2.053 7.038,2.719 l 0.034,0.006 c 0.885,0.018 1.547,-0.115 2.142,-0.797 0.845,-1.232 1.142,-2.709 1.426,-4.153 l 1.108,-6.096 4.161,4.557 0.484,0.645 0.221,0.359 0.013,-0.376 c 0.055,-3.225 -0.14,-6.446 -0.376,-9.66 l -0.453,-6.902 5.816,5.383 c 2.341,2.447 3.97,5.09 5.303,8.195 2.295,6.075 2.756,12.138 1.133,18.445 -1.622,5.123 -4.399,9.445 -8.824,12.58 z m -46.666,7.192 -0.044,-7.576 c -1.115,-0.415 -2.247,-0.75 -3.402,-1.031 -1.595,-0.35 -3.164,-0.547 -4.797,-0.576 -1.379,0.021 -2.697,0.163 -4.047,0.443 -1.29,0.316 -2.522,0.723 -3.728,1.28 l 0.003,7.467 0.318,-0.072 c 2.54,-0.523 5.115,-0.799 7.707,-0.822 2.591,0.023 5.165,0.298 7.704,0.822 l 0.286,0.065 z"
             id="path22"
             inkscape:connector-curvature="0" />
          <path
             style="fill:#0031e4;stroke:none"
             d="m 246.816,776.189 c -2.495,1.489 -5.063,2.356 -7.715,2.772 -2.63,0.413 -5.333,0.382 -8.126,0.079 l -0.031,-0.004 c -2.644,-0.382 -5.198,-0.985 -7.678,-1.815 -2.481,-0.83 -4.883,-1.886 -7.221,-3.169 l -0.023,-0.014 -0.688,-0.406 -3.684,7.773 c 0.327,-0.053 0.667,-0.104 1.016,-0.152 1.95,-0.266 3.921,-0.39 5.901,-0.372 l 0.017,0 c 1.702,0.047 3.375,0.201 5.033,0.46 1.653,0.259 3.293,0.625 4.932,1.097 l 0.018,0.004 2.582,0.795 0.615,0.189 0,0.645 0,15.671 0.004,0 0,1.384 5.099,0 0,-7.983 0,-0.505 0.441,-0.253 1.818,-1.044 0.031,-0.014 c 1.256,-0.655 2.549,-1.134 3.879,-1.453 1.324,-0.318 2.688,-0.479 4.091,-0.499 l 0.011,-0.004 4.957,0 0.874,0 0,0.681 c 0.779,-0.176 1.564,-0.319 2.357,-0.427 1.154,-0.157 2.325,-0.242 3.52,-0.25 l 0.01,0 c 1.288,0.01 2.542,0.107 3.77,0.288 1.24,0.182 2.466,0.449 3.69,0.799 l 0.018,0.007 2.372,0.733 0.619,0.191 0,0.643 0,19.126 0,0.644 -0.622,0.19 -2.377,0.726 -0.014,0.007 c -1.222,0.35 -2.449,0.616 -3.689,0.798 -1.227,0.18 -2.48,0.277 -3.767,0.289 l -0.014,0 c -1.288,-0.012 -2.54,-0.109 -3.768,-0.289 -1.24,-0.182 -2.467,-0.449 -3.69,-0.798 l -0.017,-0.007 -2.252,-0.691 -0.87,0 0,0.668 0,0.875 -0.875,0 -17.637,0 -0.874,0 0,-0.875 0,-0.418 -0.297,0.09 -0.014,0.007 c -1.753,0.505 -3.511,0.887 -5.287,1.146 -1.764,0.258 -3.559,0.396 -5.399,0.415 l -0.014,0 c -1.84,-0.019 -3.635,-0.157 -5.399,-0.415 -1.777,-0.259 -3.535,-0.641 -5.288,-1.146 l -0.017,-0.007 -1.495,-0.459 -0.028,0.815 -0.03,0.847 -0.842,0 -26.074,0 -0.875,0 0,-0.875 0,-0.794 -1.522,0.466 -0.017,0.007 c -1.753,0.505 -3.51,0.887 -5.287,1.146 -1.764,0.258 -3.558,0.396 -5.398,0.415 l -0.014,0 c -1.84,-0.019 -3.635,-0.157 -5.4,-0.415 -1.705,-0.249 -3.394,-0.61 -5.078,-1.085 l 0,0.26 0,0.875 -0.871,0 -28.837,0 -0.875,0 0,-0.875 0,-0.58 -0.32,0.115 -0.017,0.007 c -1.546,0.518 -3.101,0.915 -4.669,1.194 -1.56,0.277 -3.154,0.441 -4.785,0.496 l -0.021,0 -0.249,0.002 -0.003,0 c -0.529,0.002 -1.05,-0.006 -1.558,-0.027 -0.554,-0.022 -1.072,-0.054 -1.554,-0.095 -2.597,-0.222 -5.169,-0.74 -7.662,-1.554 l -0.014,-0.006 -1.354,-0.469 0,0.917 0,0.875 -0.875,0 -11.7142,0 -0.8713,0 0,-0.875 0,-0.795 -1.5264,0.467 -0.0138,0.007 c -1.7535,0.505 -3.5119,0.887 -5.2882,1.146 -1.7644,0.258 -3.5595,0.396 -5.3998,0.415 l -0.0139,0 c -1.8397,-0.019 -3.6339,-0.157 -5.3982,-0.415 -1.7763,-0.259 -3.5333,-0.641 -5.2867,-1.146 l -0.0174,-0.007 -2.3292,-0.714 -2.3996,0.718 -0.0139,0.003 -0.2722,0.078 -0.003,0 c -0.5534,0.154 -1.0726,0.29 -1.5541,0.404 -0.5019,0.119 -1.0265,0.232 -1.57,0.339 l 0,0 c -2.6248,0.513 -5.307,0.761 -8.0057,0.733 l -0.0168,0 c -1.7004,-0.048 -3.3741,-0.202 -5.0313,-0.461 -1.6707,-0.262 -3.3096,-0.627 -4.9302,-1.093 l -0.0173,-0.007 -2.4497,-0.75 -0.4984,0 0,1.078 0,0.875 -0.8748,0 -12.7275,0 -0.8713,0 0,-0.875 0,-26.464 -7.2752,0 -0.8747,0 0,-0.875 0,-12.129 0,-0.874 0.8747,0 28.8827,0 0.8747,0 0,0.874 0,8.08 0.3933,-0.057 c 0.3793,-0.05 0.7468,-0.096 1.0979,-0.134 1.8511,-0.199 3.7202,-0.272 5.5951,-0.219 l 0.0174,0 c 1.5824,0.075 3.135,0.24 4.6683,0.495 l 0,0.001 c 1.5328,0.255 3.0547,0.602 4.5771,1.042 l 0.0069,0 2.4016,0.719 2.3237,-0.716 0.0174,-0.004 c 1.7693,-0.51 3.5268,-0.894 5.2872,-1.151 1.7649,-0.259 3.56,-0.397 5.3992,-0.412 l 0.0139,0 c 1.8393,0.015 3.6354,0.153 5.4013,0.411 1.7668,0.258 3.5262,0.643 5.2921,1.153 l 0.0069,0 1.5244,0.456 0,-11.413 0,-0.874 0.8748,0 11.7142,0 0.875,0 0,0.874 0,11.47 1.452,-0.476 0.001,0.002 c 1.742,-0.579 3.496,-0.988 5.262,-1.247 1.763,-0.258 3.558,-0.368 5.385,-0.35 l 0.017,0 c 1.625,0.048 3.219,0.199 4.789,0.459 1.582,0.261 3.141,0.632 4.685,1.118 l 0.02,0.007 2.023,0.691 0,-9.925 0,-0.874 0.874,0 27.18,0 0.874,0 0,0.874 0,8.516 -0.13,0.458 -0.209,0.341 0.337,-0.104 0.014,-0.003 c 1.416,-0.409 2.82,-0.737 4.221,-0.983 1.411,-0.249 2.84,-0.422 4.3,-0.521 l 0.017,0 c 1.582,-0.075 3.14,-0.062 4.684,0.042 1.137,0.077 2.273,0.205 3.416,0.382 l -5.704,-12.603 -0.075,-0.359 0.025,-17.448 0,-0.383 0.283,-0.259 14.485,-13.263 0.584,-0.229 20.313,-0.089 0.464,0.129 3.223,2.006 c -0.041,-0.222 -0.077,-0.445 -0.108,-0.669 -0.131,-0.932 -0.172,-1.874 -0.094,-2.896 l 0.003,-0.027 c 0.088,-0.81 0.222,-1.611 0.415,-2.397 0.196,-0.797 0.451,-1.578 0.779,-2.339 l 0.02,-0.041 0.844,-1.7 0.219,-0.443 0.488,-0.042 2.488,-0.216 0.137,0 c 1.096,0.077 2.008,0.263 2.864,0.612 0.857,0.348 1.64,0.854 2.475,1.571 l 0.082,0.079 c 0.672,0.747 1.207,1.501 1.647,2.312 0.248,0.456 0.463,0.929 0.655,1.426 l 0.408,-0.294 c 0.422,-0.301 0.912,-0.636 1.405,-0.971 l 0.004,-0.003 3.082,-2.069 0.811,-0.544 0.45,0.865 1.455,2.8 0.007,0.021 c 0.697,1.423 0.933,2.768 0.852,4.114 -0.08,1.312 -0.46,2.603 -1.006,3.966 l -0.027,0.058 c -0.561,1.143 -1.203,2.153 -1.943,3.078 l -0.002,-10e-4 c -0.494,0.617 -1.031,1.198 -1.613,1.752 0.76,0.43 1.511,0.847 2.243,1.238 1.088,0.579 2.193,1.131 3.339,1.633 l 0,-0.001 0.01,0.005 0.004,0.003 0.845,0.366 c 1.958,0.849 3.948,1.714 5.981,2.284 0.306,0.002 0.572,-0.022 0.796,-0.096 l 0.001,0.002 c 0.187,-0.062 0.363,-0.173 0.537,-0.36 0.354,-0.526 0.6,-1.114 0.788,-1.726 l 0.001,0 c 0.194,-0.635 0.337,-1.356 0.477,-2.067 l 0.002,0 1.106,-6.083 0.315,-1.735 1.188,1.301 3.363,3.683 c -0.012,-0.9 -0.039,-1.803 -0.08,-2.707 -0.068,-1.56 -0.178,-3.175 -0.297,-4.802 l 0,-0.007 -0.452,-6.902 1.462,-0.693 5.816,5.383 0.038,0.034 c 1.207,1.262 2.235,2.581 3.135,3.988 0.896,1.401 1.66,2.88 2.342,4.471 l 0.014,0.034 c 1.178,3.117 1.885,6.236 2.09,9.388 0.205,3.149 -0.094,6.332 -0.93,9.58 l -0.01,0.048 c -0.835,2.638 -1.972,5.076 -3.474,7.263 -1.505,2.193 -3.378,4.132 -5.682,5.764 l -0.054,0.037 z m -7.982,1.051 c 2.432,-0.382 4.786,-1.177 7.076,-2.541 2.1,-1.496 3.816,-3.277 5.2,-5.294 1.399,-2.038 2.463,-4.324 3.249,-6.807 l 0.001,0.001 c 0.778,-3.044 1.056,-6.032 0.864,-8.993 -0.193,-2.968 -0.862,-5.913 -1.975,-8.865 -0.648,-1.507 -1.365,-2.899 -2.198,-4.201 -0.832,-1.302 -1.791,-2.53 -2.924,-3.714 l 0,0 -4.173,-3.863 0.31,4.715 0,0 c 0.116,1.586 0.224,3.191 0.297,4.85 0.071,1.618 0.107,3.246 0.079,4.885 l 0,0.017 -0.013,0.377 -1.613,0.427 -0.199,-0.325 -0.426,-0.567 -2.957,-3.239 -0.792,4.362 0,0.014 c -0.144,0.729 -0.291,1.47 -0.527,2.241 l 0,0.004 c -0.239,0.78 -0.559,1.537 -1.036,2.232 l -0.065,0.082 c -0.407,0.466 -0.848,0.749 -1.345,0.914 l 0,0.003 c -0.453,0.15 -0.933,0.188 -1.47,0.177 l -0.12,-0.01 -0.034,-0.006 -0.096,-0.02 c -2.161,-0.597 -4.244,-1.502 -6.294,-2.39 l -0.841,-0.364 -0.001,10e-4 -0.01,-0.004 -0.007,-0.004 c -1.18,-0.515 -2.331,-1.091 -3.469,-1.697 -1.157,-0.617 -2.246,-1.236 -3.337,-1.857 l -1.085,-0.617 0.952,-0.808 c 0.879,-0.746 1.642,-1.509 2.302,-2.334 l 0,-0.004 c 0.656,-0.819 1.222,-1.706 1.715,-2.706 0.48,-1.197 0.813,-2.314 0.878,-3.404 0.064,-1.055 -0.121,-2.108 -0.665,-3.228 l -0.002,0.001 -1.005,-1.934 -2.272,1.525 -0.001,-0.001 c -0.434,0.295 -0.875,0.596 -1.367,0.947 -0.448,0.32 -0.886,0.646 -1.302,0.983 l -1.017,0.824 -0.37,-1.255 c -0.248,-0.839 -0.542,-1.582 -0.916,-2.271 -0.364,-0.671 -0.814,-1.303 -1.38,-1.939 -0.67,-0.569 -1.289,-0.97 -1.949,-1.238 -0.661,-0.269 -1.385,-0.416 -2.265,-0.483 l -1.93,0.168 -0.604,1.218 c -0.292,0.678 -0.518,1.367 -0.689,2.064 -0.171,0.698 -0.292,1.413 -0.372,2.137 l 0.001,0 c -0.068,0.898 -0.032,1.719 0.081,2.527 0.115,0.822 0.314,1.649 0.567,2.54 l -1.302,0.977 -4.82,-3.001 -19.723,0.087 -13.953,12.776 -0.024,16.872 6.312,13.946 0.706,1.56 -1.676,-0.347 -0.39,-0.08 c -1.481,-0.276 -2.961,-0.463 -4.448,-0.563 -1.484,-0.1 -2.97,-0.114 -4.469,-0.043 l 0,0 c -1.387,0.094 -2.756,0.261 -4.115,0.5 -1.363,0.24 -2.701,0.551 -4.023,0.932 l 0,0 -2.554,0.789 -1.001,-1.292 1.295,-2.105 0,-7.395 -25.43,0 0,10.379 7.242,0 0,0.004 0.454,-0.002 0.454,-0.003 0.456,-0.006 0.451,-0.008 0.116,-0.003 1.605,-0.041 -0.844,1.37 -10.596,17.203 -1.617,-0.458 c 0,-0.704 -0.034,-1.352 -0.115,-1.972 -0.08,-0.618 -0.208,-1.23 -0.392,-1.868 -0.204,-0.522 -0.429,-1 -0.69,-1.465 -0.262,-0.466 -0.56,-0.912 -0.909,-1.368 l -0.19,-0.209 -1.337,-1.462 1.979,0 1.471,0 0,-9.439 -1.861,-0.636 c -1.472,-0.464 -2.949,-0.815 -4.435,-1.061 -1.501,-0.248 -3.017,-0.392 -4.556,-0.437 -1.715,-0.017 -3.416,0.089 -5.101,0.336 -1.686,0.246 -3.344,0.632 -4.973,1.174 l -0.003,0.002 -2.597,0.851 -1.145,0.375 0,-1.205 0,-11.8 -9.9645,0 0,11.711 0,1.174 -1.1242,-0.337 -2.6485,-0.792 5e-4,-0.002 c -1.6677,-0.481 -3.3478,-0.847 -5.0536,-1.096 -1.7059,-0.25 -3.4207,-0.382 -5.1553,-0.398 -1.7341,0.016 -3.4479,0.149 -5.1533,0.398 -1.7059,0.25 -3.3835,0.614 -5.0452,1.093 l 5e-4,0.001 -2.5786,0.794 -0.5059,0.004 -2.6525,-0.794 5e-4,-0.002 c -1.4475,-0.418 -2.8999,-0.749 -4.3693,-0.993 l -0.0029,0 c -1.4713,-0.245 -2.956,-0.403 -4.464,-0.475 l 0,0 c -1.7808,-0.049 -3.5665,0.022 -5.3458,0.213 -0.3649,0.039 -0.716,0.082 -1.0502,0.127 -0.3457,0.047 -0.6958,0.099 -1.0474,0.156 l -0.0972,0.016 -0.1983,0.037 -1.032,0.193 0,-1.051 0,-8.228 -27.1331,0 0,10.379 7.2717,0 0.8713,0 0,0.875 0,26.464 10.9815,0 0,-1.078 0,-0.875 0.8747,0 1.4952,0 0.2563,0.041 2.5663,0.787 5e-4,-0.002 c 1.5824,0.455 3.1513,0.807 4.7189,1.052 1.5814,0.247 3.1816,0.394 4.8121,0.44 2.5588,0.026 5.1181,-0.213 7.6397,-0.706 l 0.0034,0 c 0.4811,-0.093 0.9819,-0.203 1.4981,-0.325 0.5371,-0.127 1.0345,-0.255 1.4902,-0.382 l -5e-4,-10e-4 0.2583,-0.074 0,0 2.6506,-0.793 1.1242,-0.335 0,0.529 1.9478,0.597 5e-4,-0.002 c 1.6846,0.485 3.3666,0.851 5.0616,1.099 1.7034,0.249 3.4137,0.382 5.1453,0.4 l 0.0139,0 c 1.7327,-0.018 3.4435,-0.151 5.1469,-0.4 1.6954,-0.248 3.3785,-0.614 5.063,-1.099 l 5e-4,0.003 2.6362,-0.807 1.1242,-0.344 0,1.178 0,1.097 9.9679,0 0,-1.268 0,-1.224 1.159,0.401 2.498,0.866 0,-0.002 c 2.359,0.769 4.798,1.261 7.267,1.471 0.526,0.045 1.019,0.077 1.478,0.096 0.502,0.019 0.996,0.028 1.479,0.026 l 0.229,-0.002 c 1.526,-0.051 3.038,-0.208 4.54,-0.475 1.495,-0.265 2.965,-0.64 4.415,-1.126 l 0,0 1.472,-0.53 1.169,-0.422 0,1.242 0,0.947 27.09,0 0,-0.563 0,-1.18 1.128,0.347 0.883,0.271 0.001,-0.002 c 1.684,0.485 3.367,0.851 5.062,1.099 1.704,0.249 3.415,0.382 5.147,0.4 l 0.014,0 c 1.732,-0.018 3.442,-0.151 5.145,-0.4 1.695,-0.248 3.378,-0.614 5.062,-1.099 l 0,0.002 2.567,-0.787 0.253,-0.037 0.068,-10e-4 0.878,-0.006 0,0.877 0,1.079 24.359,0 0.039,-1.107 0.039,-1.14 1.088,0.334 2.565,0.788 0,-0.002 c 1.685,0.485 3.367,0.851 5.063,1.099 1.703,0.249 3.414,0.382 5.146,0.4 l 0.014,0 c 1.732,-0.018 3.442,-0.151 5.146,-0.4 1.695,-0.248 3.378,-0.614 5.062,-1.099 l 0,0.003 1.411,-0.432 1.127,-0.345 0,1.178 0,0.723 15.887,0 0,-0.665 0,-0.871 0.875,0 1.879,10e-4 0.256,0.037 2.357,0.723 0,-10e-4 c 1.154,0.329 2.306,0.581 3.465,0.75 1.167,0.171 2.335,0.264 3.515,0.276 l 0.014,0 c 1.179,-0.012 2.348,-0.105 3.514,-0.276 1.159,-0.169 2.311,-0.42 3.464,-0.75 l 0,0.002 1.741,-0.532 0,-17.84 -1.736,-0.537 -10e-4,0.002 c -1.154,-0.33 -2.307,-0.582 -3.465,-0.752 -1.169,-0.172 -2.342,-0.264 -3.525,-0.274 -1.106,0.009 -2.2,0.088 -3.29,0.237 -1.076,0.146 -2.153,0.366 -3.238,0.656 l -1.1,0.295 0,-1.139 0,-0.045 -4.082,0 0,-0.003 c -1.271,0.019 -2.504,0.164 -3.699,0.451 -1.181,0.284 -2.329,0.708 -3.446,1.287 l 0.001,0.002 -1.377,0.791 0,8.348 0,0.872 -0.875,0 -6.849,0 -0.875,0 0,-0.872 0,-0.16 0,-2.095 0.004,0 0,-15.027 -1.968,-0.606 0,-0.001 c -1.56,-0.449 -3.123,-0.798 -4.704,-1.045 -1.581,-0.247 -3.181,-0.394 -4.814,-0.439 -1.884,-0.017 -3.768,0.103 -5.638,0.358 -0.364,0.049 -0.742,0.107 -1.132,0.172 -0.345,0.058 -0.721,0.127 -1.13,0.207 l 0,-0.002 -0.293,0.058 0.001,0.002 -0.018,0.004 -1.754,0.401 0.77,-1.624 4.833,-10.2 0.424,-0.894 0.834,0.532 0.544,0.348 0.001,-0.002 0.913,0.539 c 2.254,1.237 4.558,2.251 6.929,3.044 2.375,0.794 4.826,1.373 7.369,1.741 2.65,0.285 5.196,0.316 7.645,-0.068 z m -7.645,0.068 0.001,0 m -186.9019,5.847 -0.0079,0.002 m 82.6848,3.078 0,8.837 0,0.875 -0.875,0 -0.623,0 c 0.089,0.144 0.176,0.288 0.259,0.435 0.299,0.53 0.56,1.09 0.805,1.718 l 0.023,0.072 c 0.163,0.557 0.286,1.1 0.378,1.64 l 8.366,-13.582 -0.378,10e-4 0,0.004 -7.955,0 z m 71.86,-4.67 -0.035,-5.891 c -0.347,-0.12 -0.702,-0.236 -1.068,-0.346 l -0.003,0 c -0.574,-0.173 -1.122,-0.32 -1.648,-0.448 l 0,0 c -0.773,-0.169 -1.538,-0.302 -2.302,-0.395 -0.779,-0.094 -1.547,-0.149 -2.311,-0.163 -0.648,0.01 -1.291,0.049 -1.941,0.12 -0.641,0.07 -1.281,0.171 -1.928,0.305 -0.599,0.148 -1.195,0.32 -1.792,0.523 -0.419,0.142 -0.833,0.3 -1.242,0.474 l 0.003,5.826 c 0.215,-0.039 0.444,-0.082 0.685,-0.122 0.367,-0.062 0.728,-0.119 1.081,-0.169 1.772,-0.253 3.569,-0.389 5.381,-0.404 l 0.017,0 0.331,0.004 0.004,0 c 0.384,0.006 0.749,0.018 1.097,0.033 0.397,0.017 0.764,0.038 1.094,0.062 1.53,0.108 3.057,0.307 4.577,0.591 z m 1.704,-6.512 0.045,7.577 0.006,1.096 -1.069,-0.242 -0.28,-0.064 c -1.681,-0.345 -3.386,-0.582 -5.106,-0.704 -0.382,-0.027 -0.729,-0.048 -1.047,-0.062 -0.366,-0.015 -0.719,-0.027 -1.049,-0.032 l -0.318,-0.005 c -1.713,0.016 -3.43,0.147 -5.141,0.39 -0.354,0.05 -0.702,0.105 -1.04,0.162 -0.31,0.053 -0.653,0.117 -1.033,0.191 l 0,-0.002 -0.3,0.06 0,10e-4 -0.318,0.072 -1.062,0.24 -0.001,-1.091 -0.004,-7.467 0,-0.559 0.506,-0.234 c 0.632,-0.292 1.271,-0.545 1.918,-0.765 0.634,-0.215 1.29,-0.403 1.971,-0.57 l 0.027,-0.006 c 0.703,-0.146 1.399,-0.256 2.098,-0.333 0.687,-0.074 1.389,-0.116 2.116,-0.127 l 0.024,0 c 0.864,0.015 1.694,0.073 2.502,0.17 0.827,0.101 1.647,0.242 2.466,0.422 l 0.021,0.007 c 0.622,0.152 1.213,0.31 1.764,0.476 l -0.001,10e-4 c 0.565,0.17 1.144,0.364 1.738,0.585 l 0.563,0.21 0.004,0.603 z"
             id="path24"
             inkscape:connector-curvature="0" />
          <g
             id="g26">
            <path
               style="fill:#0031e4;stroke:none"
               d="m 169.35,752.151 12.824,-11.742 18.473,-0.081 8.906,5.543 c 1.022,-0.409 1.182,-0.818 1.182,-0.818 0,0 -2.044,-5.725 -2.249,-7.565 -0.204,-1.84 0.319,-4.4 1.023,-5.725 4.142,-0.678 5.782,4.015 5.782,6.952 0,1.431 0.147,3.067 0.147,3.067 2.109,-2.988 3.994,-4.367 6.952,-6.339 0,0 0.793,1.39 0.516,2.798 -0.888,4.493 -3.995,6.674 -7.468,9.061 0,0 7.361,4.294 9.202,5.112 1.84,0.818 7.856,3.449 9.339,3.57 4.951,0.402 5.964,-4.194 6.61,-7.864 2.001,1.962 2.74,6.107 1.635,9.815 4.372,-3.747 4.294,-7.822 4.294,-13.495 0,-1.636 -0.409,-6.952 -0.409,-6.952 7.967,6.905 11.371,24.465 0.394,34.416 -8.175,7.412 -24.469,2.676 -31.832,-3.074 -0.206,-0.832 -0.804,-0.588 -1.396,0.739 l -5.344,11.277 -5.512,0 -0.045,-7.637 c -7.393,-3.195 -14.567,-3.535 -21.419,0.296 l 0.004,7.341 -5.603,0.284 -6.028,-13.32 0.022,-15.659 z m 53.858,9.573 c 1.394,0 2.525,1.233 2.525,2.754 0,1.521 -1.131,2.754 -2.525,2.754 -1.394,0 -2.524,-1.233 -2.524,-2.754 0,-1.521 1.13,-2.754 2.524,-2.754 z"
               id="path28"
               inkscape:connector-curvature="0" />
            <path
               style="fill:#ff0000;stroke:none"
               d="m 41.2051,775.959 0,6.674 -8.0086,0 0,27.339 -7.2725,0 0,-27.339 -8.1467,0 0,-6.674 23.4278,0 z m 19.5616,32.77 c -3.3754,1.074 -6.8121,1.611 -10.3103,1.611 -3.4977,0 -6.9344,-0.537 -10.3097,-1.611 l 0,-22.644 c 3.3753,-1.075 6.812,-1.612 10.3097,-1.612 3.4982,0 6.9349,0.537 10.3103,1.612 l 0,22.644 z m -10.3103,-4.05 c 0.7061,0 1.4118,-0.023 2.1174,-0.069 0.7056,-0.046 1.3503,-0.115 1.9331,-0.207 l 0,-13.992 c -1.1661,-0.184 -2.5159,-0.276 -4.0505,-0.276 -0.7056,0 -1.4189,0.023 -2.1402,0.069 -0.7209,0.046 -1.3575,0.115 -1.9098,0.207 l 0,13.992 c 0.5828,0.092 1.2194,0.161 1.9098,0.207 0.6904,0.046 1.4041,0.069 2.1402,0.069 z m 36.4534,4.05 c -3.3753,1.074 -6.8121,1.611 -10.3103,1.611 -3.4976,0 -6.9344,-0.537 -10.3097,-1.611 l 0,-22.644 c 3.3753,-1.075 6.8121,-1.612 10.3097,-1.612 3.4982,0 6.935,0.537 10.3103,1.612 l 0,22.644 z m -10.3103,-4.05 c 0.7062,0 1.4118,-0.023 2.1174,-0.069 0.7056,-0.046 1.3504,-0.115 1.9331,-0.207 l 0,-13.992 c -1.166,-0.184 -2.5158,-0.276 -4.0505,-0.276 -0.7056,0 -1.4188,0.023 -2.1402,0.069 -0.7208,0.046 -1.3574,0.115 -1.9097,0.207 l 0,13.992 c 0.5827,0.092 1.2193,0.161 1.9097,0.207 0.6904,0.046 1.4042,0.069 2.1402,0.069 z m 22.0932,5.293 -6.2597,0 0,-35.762 6.2597,0 0,35.762 z m 18.4563,-17.628 0,-1.933 c -0.46,-0.092 -0.982,-0.161 -1.564,-0.207 -0.584,-0.046 -1.151,-0.069 -1.704,-0.069 -1.196,0 -2.301,0.092 -3.313,0.276 l 0,1.335 c 0,0.767 0.115,1.258 0.345,1.472 0.23,0.215 0.514,0.353 0.851,0.415 l 5.569,0.966 c 1.933,0.338 3.452,1.166 4.557,2.486 1.105,1.319 1.657,2.945 1.657,4.879 l 0,6.673 c -1.473,0.553 -3.03,0.975 -4.672,1.266 -1.641,0.291 -3.26,0.437 -4.856,0.437 -3.405,0 -6.674,-0.567 -9.803,-1.703 l 0,-6.996 6.213,0 0,2.762 c 0.491,0.092 1.036,0.161 1.635,0.207 0.598,0.046 1.188,0.069 1.771,0.069 1.259,0 2.425,-0.092 3.498,-0.276 l 0,-2.439 c 0,-0.43 -0.115,-0.821 -0.345,-1.174 -0.23,-0.353 -0.56,-0.56 -0.989,-0.622 l -5.57,-0.92 c -1.871,-0.307 -3.352,-1.105 -4.441,-2.393 -1.089,-1.289 -1.634,-2.992 -1.634,-5.109 l 0,-5.661 c 1.473,-0.553 3.015,-0.959 4.626,-1.22 1.61,-0.261 3.198,-0.392 4.763,-0.392 1.565,0 3.169,0.131 4.81,0.392 1.642,0.261 3.245,0.667 4.81,1.22 l 0,6.259 -6.214,0 z m 12.382,-16.385 21.724,0 0,5.017 -13.9,22.598 c 2.24,-0.183 4.495,-0.276 6.766,-0.276 l 7.364,0 0,6.674 -23.381,0 0,-5.201 13.807,-22.415 c -2.27,0.184 -4.602,0.277 -6.995,0.277 l -5.385,0 0,-6.674 z m 46.348,32.77 c -3.375,1.074 -6.812,1.611 -10.31,1.611 -3.498,0 -6.935,-0.537 -10.31,-1.611 l 0,-22.644 c 3.375,-1.075 6.812,-1.612 10.31,-1.612 3.498,0 6.935,0.537 10.31,1.612 l 0,22.644 z m -10.31,-4.05 c 0.706,0 1.411,-0.023 2.117,-0.069 0.706,-0.046 1.35,-0.115 1.933,-0.207 l 0,-13.992 c -1.166,-0.184 -2.516,-0.276 -4.05,-0.276 -0.706,0 -1.419,0.023 -2.141,0.069 -0.72,0.046 -1.357,0.115 -1.909,0.207 l 0,13.992 c 0.582,0.092 1.219,0.161 1.909,0.207 0.691,0.046 1.405,0.069 2.141,0.069 z m 26.143,-14.544 c -0.706,0 -1.419,0.023 -2.14,0.069 -0.721,0.046 -1.358,0.115 -1.91,0.207 l 0,19.561 -6.26,0 0,-23.887 c 3.375,-1.075 6.812,-1.612 10.31,-1.612 3.498,0 6.935,0.537 10.31,1.612 l 0,23.887 -6.26,0 0,-19.561 c -1.166,-0.184 -2.516,-0.276 -4.05,-0.276 z m 26.143,14.544 c 0.706,0 1.412,-0.023 2.117,-0.069 0.706,-0.046 1.351,-0.115 1.933,-0.207 l 0,-1.933 6.26,0 0,6.259 c -3.375,1.074 -6.812,1.611 -10.31,1.611 -3.498,0 -6.934,-0.537 -10.31,-1.611 l 0,-22.644 c 3.376,-1.075 6.812,-1.612 10.31,-1.612 3.498,0 6.935,0.537 10.31,1.612 l 0,13.025 -14.36,0 0,5.293 c 0.583,0.092 1.219,0.161 1.91,0.207 0.69,0.046 1.404,0.069 2.14,0.069 z m -4.05,-10.31 8.1,0 0,-3.958 c -1.166,-0.184 -2.515,-0.276 -4.05,-0.276 -0.706,0 -1.419,0.023 -2.14,0.069 -0.721,0.046 -1.358,0.115 -1.91,0.207 l 0,3.958 z m 23.289,15.603 -4.633,0 0,-5.247 4.633,0 0,5.247 z m 12.273,-13.225 -2.27,0 c -0.43,0 -0.854,0.031 -1.273,0.092 -0.42,0.062 -0.814,0.185 -1.182,0.368 l 0,12.765 -4.173,0 0,-15.25 c 1.064,-0.634 2.179,-1.084 3.345,-1.35 1.166,-0.266 2.281,-0.399 3.344,-0.399 l 2.209,0 0,3.774 z m 16.356,12.397 c -2.251,0.715 -4.542,1.074 -6.874,1.074 -2.332,0 -4.623,-0.359 -6.873,-1.074 l 0,-15.097 c 2.25,-0.716 4.541,-1.074 6.873,-1.074 2.332,0 4.623,0.358 6.874,1.074 l 0,15.097 z m -6.874,-2.701 c 0.471,0 0.941,-0.015 1.412,-0.046 0.47,-0.03 0.9,-0.076 1.288,-0.138 l 0,-9.328 c -0.777,-0.122 -1.677,-0.184 -2.7,-0.184 -0.47,0 -0.946,0.016 -1.427,0.046 -0.48,0.031 -0.905,0.077 -1.273,0.138 l 0,9.328 c 0.389,0.062 0.813,0.108 1.273,0.138 0.461,0.031 0.936,0.046 1.427,0.046 z"
               id="path30"
               inkscape:connector-curvature="0" />
          </g>
        </g>
      </g>
    </g>
    <g
       id="g32" />
  </g>
  <g
     id="g34"
     transform="translate(0,-785.89008)" />
</svg>
